<svg id="Layer_1" data-name="Layer 1" xmlns="http://www.w3.org/2000/svg" xmlns:xlink="http://www.w3.org/1999/xlink" viewBox="0 0 437.77 1002.53"><defs><style>.cls-1{fill:none;}.cls-2,.cls-4{fill:#bebec0;}.cls-3{opacity:0.5;}.cls-10,.cls-100,.cls-101,.cls-102,.cls-103,.cls-104,.cls-105,.cls-106,.cls-11,.cls-12,.cls-13,.cls-14,.cls-15,.cls-16,.cls-17,.cls-18,.cls-19,.cls-20,.cls-21,.cls-22,.cls-23,.cls-24,.cls-25,.cls-26,.cls-27,.cls-28,.cls-29,.cls-30,.cls-31,.cls-32,.cls-33,.cls-34,.cls-35,.cls-36,.cls-37,.cls-38,.cls-39,.cls-4,.cls-40,.cls-41,.cls-42,.cls-43,.cls-44,.cls-45,.cls-46,.cls-47,.cls-48,.cls-49,.cls-5,.cls-50,.cls-51,.cls-52,.cls-53,.cls-54,.cls-55,.cls-56,.cls-57,.cls-58,.cls-59,.cls-6,.cls-60,.cls-61,.cls-62,.cls-63,.cls-64,.cls-65,.cls-66,.cls-67,.cls-68,.cls-69,.cls-7,.cls-70,.cls-71,.cls-72,.cls-73,.cls-74,.cls-75,.cls-76,.cls-77,.cls-78,.cls-79,.cls-8,.cls-80,.cls-81,.cls-82,.cls-83,.cls-84,.cls-85,.cls-86,.cls-87,.cls-88,.cls-89,.cls-9,.cls-90,.cls-91,.cls-92,.cls-93,.cls-94,.cls-95,.cls-96,.cls-97,.cls-98,.cls-99{fill-rule:evenodd;}.cls-5{fill:#bdbebf;}.cls-6{fill:#bbbcbe;}.cls-7{fill:#babbbe;}.cls-8{fill:#b9babd;}.cls-9{fill:#b9b9bc;}.cls-10{fill:#b8b8bb;}.cls-11{fill:#b7b8ba;}.cls-12{fill:#b6b7b9;}.cls-13{fill:#b5b6b8;}.cls-14{fill:#b4b5b7;}.cls-15{fill:#b4b4b5;}.cls-16{fill:#b3b3b4;}.cls-17{fill:#b2b3b3;}.cls-18{fill:#b1b2b3;}.cls-19{fill:#b0b0b2;}.cls-20{fill:#afafb1;}.cls-21{fill:#aeafb1;}.cls-22{fill:#adaeb0;}.cls-23{fill:#acadaf;}.cls-24{fill:#abacae;}.cls-25{fill:#aaabad;}.cls-26{fill:#a9aaac;}.cls-27{fill:#a7a8aa;}.cls-28{fill:#a7a7a9;}.cls-29{fill:#a5a6a8;}.cls-30{fill:#a5a5a7;}.cls-31{fill:#a4a4a6;}.cls-32{fill:#a2a2a4;}.cls-33{fill:#a2a1a3;}.cls-34{fill:#a1a0a2;}.cls-35{fill:#a0a1a2;}.cls-36{fill:#9ea0a1;}.cls-37{fill:#9e9fa0;}.cls-38{fill:#9d9e9f;}.cls-39{fill:#9b9c9d;}.cls-40{fill:#9b9b9c;}.cls-41{fill:#9a9a9b;}.cls-42{fill:#999a9b;}.cls-43{fill:#98999b;}.cls-44{fill:#979899;}.cls-45{fill:#969798;}.cls-46{fill:#959697;}.cls-47{fill:#959596;}.cls-48{fill:#959495;}.cls-49{fill:#939393;}.cls-50{fill:#939293;}.cls-51{fill:#929292;}.cls-52{fill:#919091;}.cls-53{fill:#908f90;}.cls-54{fill:#8f8f8f;}.cls-55{fill:#8e8f8f;}.cls-56{fill:#8d8d8e;}.cls-57{fill:#8b8c8d;}.cls-58{fill:#8b8b8c;}.cls-59{fill:#8a8a8b;}.cls-60{fill:#89898a;}.cls-61{fill:#878889;}.cls-62{fill:#878788;}.cls-63{fill:#868687;}.cls-64{fill:#858586;}.cls-65{fill:#848485;}.cls-66{fill:#838385;}.cls-67{fill:#838283;}.cls-68{fill:#828182;}.cls-69{fill:#808182;}.cls-70{fill:#7f8081;}.cls-71{fill:#7e7f80;}.cls-72{fill:#7e7e7f;}.cls-73{fill:#7d7d7e;}.cls-74{fill:#7c7c7d;}.cls-75{fill:#7b7c7c;}.cls-76{fill:#7a7b7b;}.cls-77{fill:#797a7a;}.cls-78{fill:#787979;}.cls-79{fill:#767878;}.cls-80{fill:#777;}.cls-81{fill:#767677;}.cls-82{fill:#757575;}.cls-83{fill:#747474;}.cls-84{fill:#737373;}.cls-85{fill:#727272;}.cls-86{fill:#717171;}.cls-87{fill:#6f7070;}.cls-88{fill:#6f6f6f;}.cls-89{fill:#6d6e6f;}.cls-90{fill:#6d6d6e;}.cls-91{fill:#6c6c6d;}.cls-92{fill:#6a6b6c;}.cls-93{fill:#6a6a6b;}.cls-94{fill:#69696a;}.cls-95{fill:#686969;}.cls-96{fill:#676868;}.cls-97{fill:#676767;}.cls-98{fill:#666;}.cls-99{fill:#656565;}.cls-100{fill:#636464;}.cls-101{fill:#636363;}.cls-102{fill:#616262;}.cls-103{fill:#616161;}.cls-104{fill:#606060;}.cls-105{fill:#5e5f5f;}.cls-106{fill:#fff;}.cls-107{clip-path:url(#clip-path);}</style><clipPath id="clip-path"><rect class="cls-1" width="437.77" height="1002.53"/></clipPath></defs><title>drawerArtboard 5</title><rect class="cls-2" x="-3725.54" y="-6340.97" width="7999.37" height="12098.27"/><g class="cls-3"><path class="cls-4" d="M435.08-76.45,40-75.38c-36.47.1-70,13.09-94.53,35L-199.44,89.13c-23.61,23.24-38.09,54.54-38,88.81l3.09,973.54c.23,71,63,128.95,139.52,128.74l395.07-1.08c37-.1,70.76-13.72,95.61-35.92L538.51,1115.8c23.71-21.18,39.28-57.22,39.18-90L574.6,52.28C574.38-18.73,511.59-76.66,435.08-76.45Z"/><path class="cls-5" d="M435.54-76.36,41.41-75.28C5-75.18-28.47-62.21-52.9-40.35L-197.47,89c-23.55,23.22-38,54.48-37.89,88.71q1.54,486.2,3.08,972.4c.23,70.93,62.86,128.8,139.19,128.59L301,1277.64c36.91-.1,70.59-13.71,95.38-35.88l142.3-127.26c23.65-21.15,39.19-57.15,39.08-89.87q-1.54-486.2-3.08-972.4C574.5-18.7,511.87-76.57,435.54-76.36Z"/><path class="cls-6" d="M436-76.26,42.8-75.18c-36.3.1-69.72,13.06-94.09,34.89L-195.51,88.93c-23.5,23.19-37.91,54.42-37.8,88.6q1.54,485.63,3.07,971.27c.22,70.85,62.71,128.65,138.86,128.44l393.19-1.08c36.82-.1,70.43-13.69,95.16-35.84l142-127.11c23.6-21.13,39.09-57.09,39-89.77q-1.54-485.64-3.07-971.27C574.62-18.67,512.14-76.47,436-76.26Z"/><path class="cls-7" d="M436.45-76.16,44.2-75.09C8-75-25.35-62-49.66-40.24L-193.54,88.84c-23.44,23.16-37.82,54.35-37.71,88.5q1.53,485.06,3.07,970.13c.22,70.77,62.56,128.5,138.53,128.29l392.25-1.07c36.74-.1,70.26-13.68,94.93-35.8l141.62-127c23.54-21.1,39-57,38.9-89.66Q576.5,537.19,575,52.13C574.75-18.64,512.41-76.37,436.45-76.16Z"/><path class="cls-8" d="M436.9-76.06,45.59-75C9.47-74.89-23.79-62-48-40.18L-191.58,88.74C-215,111.88-229.31,143-229.2,177.14q1.53,484.5,3.06,969c.22,70.68,62.41,128.35,138.19,128.14l391.31-1.07c36.65-.1,70.09-13.66,94.7-35.75l141.28-126.81c23.48-21.08,38.91-57,38.8-89.56q-1.53-484.5-3.06-969C574.87-18.61,512.69-76.27,436.9-76.06Z"/><path class="cls-9" d="M437.36-76,47-74.89c-36,.1-69.21,13-93.41,34.77L-189.62,88.65c-23.33,23.11-37.63,54.22-37.53,88.29q1.52,483.93,3,967.86c.22,70.6,62.26,128.19,137.86,128l390.37-1.07c36.56-.1,69.92-13.65,94.47-35.71l140.95-126.66c23.43-21.05,38.81-56.89,38.71-89.45Q576.74,536,575.22,52C575-18.58,513-76.17,437.36-76Z"/><path class="cls-10" d="M437.81-75.87,48.38-74.8c-36,.1-69,13-93.19,34.73L-187.65,88.55c-23.27,23.08-37.54,54.16-37.44,88.19q1.52,483.36,3,966.72c.22,70.52,62.11,128,137.53,127.84l389.43-1.07c36.47-.1,69.75-13.63,94.25-35.67L539.77,1108c23.37-21,38.72-56.82,38.62-89.35q-1.52-483.36-3-966.72C575.12-18.55,513.23-76.08,437.81-75.87Z"/><path class="cls-11" d="M438.27-75.77,49.78-74.7c-35.86.1-68.88,13-93,34.69L-185.69,88.46c-23.22,23.05-37.45,54.1-37.35,88.08q1.52,482.79,3,965.59c.22,70.44,62,127.9,137.2,127.69l388.49-1.07c36.39-.1,69.58-13.61,94-35.63L540,1106.75c23.31-21,38.63-56.75,38.52-89.24q-1.52-482.79-3-965.59C575.24-18.52,513.5-76,438.27-75.77Z"/><path class="cls-12" d="M438.72-75.67,51.17-74.6c-35.78.1-68.72,13-92.74,34.65L-183.72,88.36c-23.16,23-37.36,54-37.26,88q1.51,482.22,3,964.45c.22,70.35,61.81,127.74,136.86,127.53l387.55-1.07c36.3-.1,69.42-13.6,93.79-35.59l139.93-126.22c23.26-21,38.53-56.69,38.43-89.14q-1.51-482.22-3-964.45C575.37-18.49,513.78-75.88,438.72-75.67Z"/><path class="cls-13" d="M439.17-75.57,52.57-74.51C16.88-74.41-16-61.56-39.94-39.9L-181.76,88.27c-23.1,23-37.27,54-37.16,87.88q1.51,481.66,3,963.32c.22,70.27,61.66,127.59,136.53,127.38l386.61-1.07c36.21-.1,69.25-13.58,93.56-35.54l139.59-126.07c23.2-21,38.44-56.62,38.34-89q-1.51-481.66-3-963.32C575.49-18.46,514-75.78,439.17-75.57Z"/><path class="cls-14" d="M439.63-75.48,54-74.41c-35.6.1-68.38,12.94-92.29,34.57l-141.47,128c-23,23-37.18,53.91-37.08,87.78q1.51,481.09,3,962.18c.22,70.19,61.51,127.44,136.2,127.24L308,1264.3c36.12-.1,69.08-13.56,93.34-35.5L540.6,1102.87c23.15-20.93,38.35-56.55,38.25-88.93q-1.51-481.09-3-962.18C575.61-18.43,514.32-75.68,439.63-75.48Z"/><path class="cls-15" d="M440.09-75.38,55.36-74.31c-35.51.1-68.22,12.92-92.06,34.52L-177.83,88.08c-23,22.94-37.09,53.84-37,87.67q1.5,480.52,3,961c.22,70.1,61.36,127.29,135.87,127.09l384.73-1.07c36-.1,68.91-13.55,93.11-35.46l138.91-125.77c23.09-20.91,38.25-56.49,38.15-88.83q-1.5-480.52-3-961C575.73-18.4,514.59-75.59,440.09-75.38Z"/><path class="cls-16" d="M440.54-75.28,56.75-74.22c-35.43.1-68,12.9-91.84,34.48L-175.86,88c-22.94,22.92-37,53.78-36.9,87.57q1.5,480,3,959.91c.22,70,61.21,127.14,135.54,126.94l383.79-1.06a138.64,138.64,0,0,0,92.88-35.42L541,1100.29c23-20.88,38.16-56.42,38.06-88.72q-1.5-480-3-959.91C575.86-18.37,514.87-75.49,440.54-75.28Z"/><path class="cls-17" d="M441-75.18,58.15-74.12C22.81-74-9.73-61.23-33.46-39.68L-173.9,87.88c-22.88,22.89-36.91,53.72-36.81,87.46q1.49,479.39,3,958.78c.22,69.94,61.06,127,135.2,126.79l382.85-1.06A138.21,138.21,0,0,0,403,1224.47L541.22,1099c23-20.86,38.07-56.35,38-88.61Q577.7,531,576.2,51.6C576-18.34,515.14-75.39,441-75.18Z"/><path class="cls-18" d="M441.45-75.09,59.54-74c-35.26.1-67.72,12.87-91.39,34.4L-171.93,87.79c-22.82,22.86-36.82,53.65-36.71,87.36q1.49,478.82,3,957.64c.22,69.85,60.91,126.84,134.87,126.63l381.91-1.06A137.75,137.75,0,0,0,403.54,1223L541.43,1097.7c22.92-20.83,38-56.28,37.87-88.51q-1.49-478.82-3-957.64C576.11-18.31,515.41-75.29,441.45-75.09Z"/><path class="cls-19" d="M441.91-75l-381,1.06c-35.17.1-67.55,12.86-91.16,34.36L-170,87.7c-22.77,22.83-36.73,53.59-36.62,87.26q1.49,478.25,3,956.51c.22,69.77,60.76,126.69,134.54,126.48l381-1.06a137.32,137.32,0,0,0,92.2-35.29l137.55-125.18c22.86-20.81,37.88-56.22,37.78-88.4q-1.49-478.26-3-956.51C576.23-18.28,515.69-75.19,441.91-75Z"/><path class="cls-20" d="M442.36-74.89l-380,1.06C27.25-73.73-5.05-61-28.6-39.51L-168,87.6c-22.71,22.81-36.64,53.52-36.53,87.15q1.48,477.68,3,955.37c.22,69.69,60.61,126.54,134.21,126.33l380-1.06a136.89,136.89,0,0,0,92-35.25l137.21-125c22.81-20.78,37.79-56.15,37.69-88.3q-1.48-477.69-3-955.37C576.35-18.25,516-75.09,442.36-74.89Z"/><path class="cls-21" d="M442.81-74.79,63.73-73.74c-35,.1-67.21,12.83-90.71,34.28L-166,87.5c-22.65,22.78-36.55,53.46-36.44,87q1.48,477.12,3,954.24c.22,69.61,60.46,126.39,133.88,126.18l379.09-1.06a136.43,136.43,0,0,0,91.74-35.21l136.87-124.88c22.75-20.76,37.69-56.09,37.59-88.19q-1.48-477.12-3-954.24C576.48-18.21,516.23-75,442.81-74.79Z"/><path class="cls-22" d="M443.27-74.7,65.12-73.64c-34.91.1-67.05,12.82-90.49,34.24L-164.08,87.41c-22.6,22.75-36.45,53.4-36.35,86.95q1.48,476.55,3,953.1c.21,69.52,60.31,126.24,133.54,126l378.15-1.06a136,136,0,0,0,91.52-35.17l136.53-124.74c22.69-20.73,37.6-56,37.5-88.09q-1.48-476.55-3-953.1C576.6-18.18,516.5-74.9,443.27-74.7Z"/><path class="cls-23" d="M443.72-74.6,66.52-73.54c-34.82.1-66.88,12.8-90.26,34.2L-162.11,87.31c-22.54,22.73-36.36,53.33-36.26,86.84q1.47,476,2.95,952c.21,69.44,60.16,126.09,133.21,125.89L315,1250.95a135.56,135.56,0,0,0,91.29-35.13l136.19-124.59c22.64-20.71,37.5-56,37.4-88q-1.47-476-2.95-952C576.72-18.15,516.78-74.8,443.72-74.6Z"/><path class="cls-24" d="M444.18-74.5,67.91-73.45c-34.73.1-66.71,12.78-90,34.16l-138,126.51c-22.49,22.7-36.28,53.27-36.17,86.74q1.47,475.41,2.94,950.83c.21,69.36,60,125.94,132.88,125.73l376.27-1.05a135.13,135.13,0,0,0,91.06-35.08l135.85-124.44c22.58-20.68,37.41-55.88,37.31-87.88q-1.47-475.41-2.94-950.83C576.85-18.12,517-74.7,444.18-74.5Z"/><path class="cls-25" d="M444.63-74.4,69.31-73.35c-34.65.1-66.55,12.77-89.81,34.12L-158.18,87.12c-22.43,22.67-36.19,53.2-36.08,86.63q1.46,474.85,2.93,949.69c.21,69.27,59.86,125.79,132.55,125.58L316.55,1248a134.71,134.71,0,0,0,90.83-35L542.9,1088.65c22.52-20.66,37.32-55.82,37.22-87.77Q578.65,526,577.18,51.19C577-18.09,517.32-74.61,444.63-74.4Z"/><path class="cls-26" d="M445.09-74.3,70.7-73.25c-34.56.1-66.38,12.75-89.59,34.08L-156.22,87c-22.37,22.64-36.09,53.14-36,86.53q1.46,474.28,2.92,948.56c.21,69.19,59.71,125.64,132.22,125.43l374.39-1.05a134.26,134.26,0,0,0,90.61-35L543.1,1087.36c22.47-20.63,37.23-55.75,37.13-87.67q-1.46-474.28-2.92-948.56C577.09-18.06,517.6-74.51,445.09-74.3Z"/><path class="cls-27" d="M445.54-74.21,72.1-73.15c-34.47.1-66.22,12.74-89.36,34l-137,126.05c-22.32,22.62-36,53.08-35.9,86.43q1.46,473.71,2.92,947.42c.21,69.11,59.56,125.49,131.89,125.28L318.1,1245a133.83,133.83,0,0,0,90.38-35l134.84-124c22.41-20.61,37.13-55.69,37-87.56q-1.46-473.71-2.92-947.42C577.22-18,517.87-74.41,445.54-74.21Z"/><path class="cls-28" d="M446-74.11l-372.51,1c-34.39.1-66,12.72-89.14,34L-152.29,86.84c-22.26,22.59-35.91,53-35.81,86.32q1.46,473.14,2.91,946.29c.21,69,59.41,125.33,131.55,125.13l372.51-1.05A133.39,133.39,0,0,0,409,1208.62l134.5-123.84c22.35-20.59,37-55.62,36.94-87.46Q579,524.17,577.55,51C577.34-18,518.14-74.31,446-74.11Z"/><path class="cls-29" d="M446.45-74,74.89-73C40.59-72.86,9-60.26-14-39L-150.32,86.74c-22.21,22.56-35.82,53-35.72,86.22q1.45,472.58,2.9,945.15c.21,68.94,59.26,125.19,131.22,125l371.57-1a133,133,0,0,0,89.93-34.87l134.16-123.69c22.3-20.56,36.94-55.55,36.85-87.36L577.67,51C577.46-18,518.41-74.21,446.45-74Z"/><path class="cls-30" d="M446.91-73.91l-370.63,1C42.07-72.77,10.57-60.17-12.41-39l-136,125.6c-22.15,22.54-35.73,52.89-35.63,86.12l2.9,944c.21,68.86,59.11,125,130.89,124.83l370.63-1a132.52,132.52,0,0,0,89.7-34.83l133.82-123.55c22.24-20.53,36.85-55.48,36.75-87.25q-1.45-472-2.89-944C577.59-17.94,518.69-74.11,446.91-73.91Z"/><path class="cls-31" d="M447.36-73.82l-369.69,1c-34.13.1-65.55,12.68-88.46,33.87L-146.39,86.55c-22.09,22.51-35.64,52.82-35.54,86Q-180.49,644-179,1115.44c.21,68.78,59,124.89,130.56,124.68l369.69-1a132.09,132.09,0,0,0,89.47-34.79l133.48-123.4c22.18-20.51,36.76-55.42,36.66-87.14q-1.44-471.44-2.89-942.88C577.71-17.91,519-74,447.36-73.82Z"/><path class="cls-32" d="M447.82-73.72l-368.75,1C45-72.58,13.69-60-9.17-38.84L-144.43,86.46c-22,22.48-35.55,52.76-35.45,85.91q1.44,470.87,2.88,941.75c.21,68.7,58.81,124.74,130.23,124.53l368.75-1a131.67,131.67,0,0,0,89.24-34.75L544.36,1079.6c22.13-20.49,36.66-55.35,36.57-87Q579.48,521.69,578,50.82C577.83-17.88,519.23-73.92,447.82-73.72Z"/><path class="cls-33" d="M448.27-73.62l-367.81,1c-34,.1-65.22,12.65-88,33.79L-142.46,86.36c-22,22.46-35.46,52.7-35.36,85.81q1.44,470.3,2.87,940.61c.21,68.61,58.66,124.58,129.89,124.38l367.81-1a131.22,131.22,0,0,0,89-34.71l132.8-123.1c22.07-20.46,36.57-55.28,36.47-86.93q-1.44-470.3-2.87-940.61C578-17.85,519.5-73.82,448.27-73.62Z"/><path class="cls-34" d="M448.73-73.52l-366.87,1c-33.87.1-65,12.63-87.79,33.75l-134.57,125c-21.92,22.43-35.37,52.63-35.27,85.7q1.43,469.74,2.87,939.48c.21,68.53,58.51,124.43,129.56,124.23l366.87-1A130.79,130.79,0,0,0,412.31,1200l132.46-123c22-20.44,36.48-55.22,36.38-86.83q-1.43-469.74-2.86-939.48C578.08-17.82,519.78-73.72,448.73-73.52Z"/><path class="cls-35" d="M449.18-73.42l-365.93,1c-33.78.09-64.88,12.61-87.56,33.71L-138.53,86.17c-21.87,22.4-35.28,52.57-35.18,85.6q1.43,469.17,2.86,938.34c.21,68.45,58.36,124.28,129.23,124.08l365.93-1a130.36,130.36,0,0,0,88.56-34.62L545,1075.73c22-20.41,36.38-55.15,36.29-86.73q-1.43-469.17-2.86-938.34C578.2-17.79,520.05-73.62,449.18-73.42Z"/><path class="cls-36" d="M449.64-73.33l-365,1C51-72.19,19.93-59.69-2.69-38.62L-136.57,86.08c-21.81,22.37-35.19,52.5-35.09,85.49q1.43,468.6,2.85,937.2c.21,68.37,58.21,124.14,128.9,123.93l365-1a129.93,129.93,0,0,0,88.33-34.58l131.78-122.66c21.9-20.39,36.29-55.08,36.19-86.62q-1.43-468.6-2.85-937.2C578.33-17.76,520.32-73.53,449.64-73.33Z"/><path class="cls-37" d="M450.09-73.23l-364,1c-33.61.1-64.55,12.58-87.11,33.63L-134.6,86c-21.76,22.35-35.1,52.44-35,85.39q1.42,468,2.84,936.07c.21,68.28,58.06,124,128.57,123.78l364-1a129.5,129.5,0,0,0,88.1-34.54L545.4,1073.14c21.85-20.36,36.2-55,36.1-86.51q-1.42-468-2.84-936.07C578.45-17.73,520.6-73.43,450.09-73.23Z"/><path class="cls-38" d="M450.55-73.13l-363.11,1C53.92-72,23.06-59.53.55-38.51L-132.64,85.88c-21.7,22.32-35,52.38-34.91,85.29q1.42,467.47,2.84,934.93c.21,68.2,57.91,123.83,128.23,123.63l363.11-1a129.06,129.06,0,0,0,87.88-34.49l131.1-122.36c21.79-20.34,36.1-54.95,36-86.41Q580.2,518,578.78,50.5C578.57-17.7,520.87-73.33,450.55-73.13Z"/><path class="cls-39" d="M451-73,88.83-72C55.4-71.9,24.62-59.44,2.17-38.45L-130.68,85.79c-21.64,22.29-34.92,52.31-34.82,85.19q1.41,466.9,2.83,933.8c.21,68.12,57.76,123.68,127.9,123.48l362.17-1a128.64,128.64,0,0,0,87.65-34.45l130.76-122.21c21.73-20.31,36-54.88,35.91-86.3q-1.41-466.9-2.83-933.8C578.7-17.67,521.14-73.23,451-73Z"/><path class="cls-40" d="M451.46-72.93l-361.23,1c-33.35.1-64,12.54-86.44,33.5L-128.71,85.69a121.44,121.44,0,0,0-34.73,85.08q1.41,466.33,2.82,932.66c.21,68,57.61,123.53,127.57,123.33l361.23-1a128.21,128.21,0,0,0,87.42-34.41L546,1069.26c21.68-20.29,35.92-54.82,35.82-86.2Q580.44,516.73,579,50.4C578.82-17.64,521.41-73.14,451.46-72.93Z"/><path class="cls-41" d="M451.91-72.84l-360.29,1c-33.26.1-63.88,12.52-86.21,33.47L-126.75,85.6a121.37,121.37,0,0,0-34.64,85l2.81,931.53c.21,68,57.46,123.38,127.24,123.18l360.29-1a127.77,127.77,0,0,0,87.19-34.37L546.24,1068c21.62-20.26,35.82-54.75,35.73-86.1q-1.41-465.76-2.81-931.53C578.94-17.6,521.69-73,451.91-72.84Z"/><path class="cls-42" d="M452.37-72.74,93-71.71C59.85-71.61,29.3-59.2,7-38.28L-124.78,85.5a121.31,121.31,0,0,0-34.55,84.87q1.4,465.2,2.81,930.39c.2,67.87,57.31,123.23,126.91,123l359.35-1a127.35,127.35,0,0,0,87-34.33l129.75-121.76c21.57-20.24,35.73-54.68,35.64-86q-1.41-465.2-2.81-930.39C579.07-17.57,522-72.94,452.37-72.74Z"/><path class="cls-43" d="M452.82-72.64l-358.41,1c-33.09.09-63.55,12.49-85.76,33.38L-122.82,85.41a121.26,121.26,0,0,0-34.46,84.77q1.4,464.63,2.8,929.26c.2,67.78,57.16,123.08,126.57,122.88l358.41-1A126.93,126.93,0,0,0,417.25,1187l129.41-121.62c21.51-20.21,35.64-54.62,35.54-85.88q-1.4-464.63-2.8-929.26C579.19-17.54,522.23-72.84,452.82-72.64Z"/><path class="cls-44" d="M453.28-72.54l-357.47,1c-33,.09-63.38,12.48-85.54,33.34L-120.85,85.31A121.19,121.19,0,0,0-155.22,170l2.79,928.12c.2,67.7,57,122.93,126.24,122.73l357.47-1a126.49,126.49,0,0,0,86.51-34.25l129.07-121.47c21.45-20.19,35.54-54.55,35.45-85.78q-1.4-464.06-2.79-928.12C579.31-17.51,522.51-72.74,453.28-72.54Z"/><path class="cls-45" d="M453.73-72.45l-356.53,1C64.29-71.32,34-59,11.89-38.12L-118.89,85.22a121.15,121.15,0,0,0-34.27,84.56q1.39,463.49,2.79,927c.2,67.62,56.86,122.78,125.91,122.58l356.53-1a126.08,126.08,0,0,0,86.29-34.2L547.07,1062.8c21.4-20.16,35.45-54.48,35.35-85.67q-1.39-463.49-2.78-927C579.44-17.48,522.78-72.64,453.73-72.45Z"/><path class="cls-46" d="M454.19-72.35l-355.59,1c-32.83.1-63,12.45-85.09,33.26L-116.92,85.12a121.07,121.07,0,0,0-34.19,84.46q1.39,462.93,2.78,925.85c.2,67.54,56.71,122.63,125.58,122.43l355.59-1a125.64,125.64,0,0,0,86.06-34.16l128.39-121.17c21.34-20.14,35.35-54.42,35.26-85.57Q581.15,513,579.76,50.09C579.56-17.45,523.05-72.55,454.19-72.35Z"/><path class="cls-47" d="M454.64-72.25,100-71.22C67.26-71.13,37.11-58.79,15.13-38L-115,85a121,121,0,0,0-34.09,84.36q1.39,462.36,2.77,924.72c.2,67.45,56.56,122.48,125.25,122.28l354.65-1a125.21,125.21,0,0,0,85.83-34.12l128-121c21.28-20.11,35.26-54.35,35.17-85.46Q581.27,512.39,579.89,50C579.68-17.42,523.33-72.45,454.64-72.25Z"/><path class="cls-48" d="M455.1-72.15l-353.71,1C68.74-71,38.67-58.71,16.75-37.95L-113,84.93a121,121,0,0,0-34,84.25q1.38,461.79,2.76,923.58c.2,67.37,56.41,122.33,124.91,122.13l353.71-1A124.78,124.78,0,0,0,420,1179.8L547.7,1058.92c21.23-20.09,35.17-54.28,35.08-85.36Q581.39,511.77,580,50C579.81-17.39,523.6-72.35,455.1-72.15Z"/><path class="cls-49" d="M455.55-72.05,102.78-71c-32.56.09-62.55,12.4-84.41,33.14L-111,84.84A120.9,120.9,0,0,0-144.94,169l2.76,922.44c.2,67.29,56.26,122.18,124.58,122l352.77-1a124.36,124.36,0,0,0,85.38-34l127.37-120.72c21.17-20.07,35.07-54.21,35-85.25q-1.38-461.22-2.76-922.45C579.93-17.36,523.87-72.25,455.55-72.05Z"/><path class="cls-50" d="M456-72l-351.83,1C71.7-70.84,41.8-58.55,20-37.84L-109.07,84.74a120.84,120.84,0,0,0-33.82,84q1.37,460.65,2.75,921.31c.2,67.2,56.11,122,124.25,121.83l351.83-1a123.93,123.93,0,0,0,85.15-34l127-120.57c21.11-20,35-54.15,34.89-85.15q-1.38-460.66-2.75-921.31C580.06-17.33,524.14-72.15,456-72Z"/><path class="cls-51" d="M456.46-71.86l-350.89,1c-32.39.09-62.22,12.37-84,33.06L-107.1,84.65a120.79,120.79,0,0,0-33.73,83.94q1.37,460.09,2.74,920.17c.2,67.12,56,121.88,123.92,121.68l350.89-1a123.5,123.5,0,0,0,84.92-34L548.32,1055c21.06-20,34.89-54.08,34.8-85q-1.37-460.09-2.74-920.17C580.18-17.3,524.42-72.06,456.46-71.86Z"/><path class="cls-52" d="M456.91-71.76,107-70.74c-32.3.09-62,12.36-83.74,33L-105.13,84.55a120.72,120.72,0,0,0-33.64,83.84q1.37,459.52,2.74,919c.2,67,55.81,121.73,123.58,121.53l349.95-1A123.08,123.08,0,0,0,422.18,1174l126.35-120.28c21-20,34.79-54,34.7-84.94q-1.36-459.52-2.73-919C580.3-17.27,524.69-72,456.91-71.76Z"/><path class="cls-53" d="M457.37-71.66l-349,1c-32.22.09-61.88,12.34-83.51,33l-128,122.12a120.68,120.68,0,0,0-33.55,83.74q1.36,459,2.73,917.9c.2,67,55.66,121.58,123.25,121.38l349-1a122.66,122.66,0,0,0,84.47-33.87l126-120.13c20.94-20,34.7-53.95,34.61-84.83q-1.36-459-2.73-917.9C580.43-17.24,525-71.86,457.37-71.66Z"/><path class="cls-54" d="M457.82-71.57l-348.07,1C77.63-70.46,48-58.22,26.47-37.61l-127.68,122A120.62,120.62,0,0,0-134.67,168q1.36,458.38,2.72,916.77c.2,66.88,55.51,121.43,122.92,121.23L339,1205a122.24,122.24,0,0,0,84.24-33.83l125.67-120c20.89-19.94,34.61-53.88,34.52-84.73q-1.36-458.38-2.72-916.77C580.55-17.21,525.23-71.76,457.82-71.57Z"/><path class="cls-55" d="M458.28-71.47l-347.13,1c-32,.1-61.55,12.31-83.06,32.9L-99.24,84.27a120.56,120.56,0,0,0-33.37,83.53q1.36,457.81,2.71,915.63c.2,66.79,55.36,121.28,122.59,121.08l347.13-1a121.8,121.8,0,0,0,84-33.78l125.33-119.83c20.83-19.92,34.52-53.82,34.42-84.62q-1.36-457.82-2.71-915.63C580.67-17.18,525.51-71.66,458.28-71.47Z"/><path class="cls-56" d="M458.73-71.37l-346.19,1c-32,.1-61.38,12.3-82.84,32.85l-127,121.67a120.51,120.51,0,0,0-33.28,83.43q1.35,457.25,2.7,914.49c.2,66.71,55.21,121.13,122.26,120.93l346.19-1a121.39,121.39,0,0,0,83.78-33.74l125-119.68c20.77-19.89,34.42-53.75,34.33-84.52q-1.35-457.25-2.7-914.5C580.8-17.15,525.78-71.57,458.73-71.37Z"/><path class="cls-57" d="M459.19-71.27l-345.25,1C82.07-70.17,52.73-58,31.33-37.45L-95.31,84.07a120.45,120.45,0,0,0-33.19,83.32q1.35,456.68,2.7,913.36c.2,66.63,55.06,121,121.93,120.78l345.25-1a121,121,0,0,0,83.55-33.7l124.65-119.53c20.72-19.87,34.33-53.68,34.24-84.42l-2.7-913.36C580.92-17.12,526.05-71.47,459.19-71.27Z"/><path class="cls-58" d="M459.64-71.17l-344.31,1c-31.78.09-61,12.26-82.39,32.77L-93.35,84a120.41,120.41,0,0,0-33.1,83.22q1.35,456.11,2.69,912.23c.2,66.54,54.91,120.83,121.59,120.63l344.31-1a120.52,120.52,0,0,0,83.33-33.66L549.78,1046c20.66-19.84,34.23-53.61,34.14-84.31q-1.35-456.12-2.69-912.23C581-17.09,526.33-71.37,459.64-71.17Z"/><path class="cls-59" d="M460.1-71.08l-343.37,1A118.63,118.63,0,0,0,34.57-37.34l-126,121.22a120.35,120.35,0,0,0-33,83.11q1.34,455.54,2.68,911.09c.2,66.46,54.76,120.68,121.26,120.48l343.37-1a120.12,120.12,0,0,0,83.1-33.62L550,1044.7c20.61-19.82,34.14-53.55,34.05-84.2Q582.7,505,581.36,49.41C581.17-17.06,526.6-71.27,460.1-71.08Z"/><path class="cls-60" d="M460.55-71,118.13-70A118.21,118.21,0,0,0,36.19-37.28L-89.42,83.79a120.29,120.29,0,0,0-32.92,83q1.34,455,2.68,910c.19,66.38,54.61,120.52,120.93,120.33l342.43-1a119.69,119.69,0,0,0,82.87-33.57L550.2,1043.41c20.55-19.79,34-53.48,34-84.1q-1.34-455-2.68-910C581.29-17,526.87-71.17,460.55-71Z"/><path class="cls-61" d="M461-70.88l-341.49,1A117.79,117.79,0,0,0,37.81-37.22L-87.45,83.69a120.24,120.24,0,0,0-32.83,82.91Q-119,621-117.62,1075.42c.19,66.29,54.46,120.37,120.6,120.18l341.49-1a119.26,119.26,0,0,0,82.64-33.53l123.3-118.94c20.49-19.77,34-53.42,33.86-84q-1.33-454.41-2.67-908.82C581.41-17,527.14-71.08,461-70.88Z"/><path class="cls-62" d="M461.46-70.78l-340.55,1A117.37,117.37,0,0,0,39.43-37.17L-85.49,83.6a120.19,120.19,0,0,0-32.74,82.8q1.33,453.84,2.66,907.68c.19,66.21,54.32,120.22,120.27,120l340.55-1a118.84,118.84,0,0,0,82.42-33.49l123-118.79c20.44-19.75,33.86-53.35,33.77-83.89q-1.33-453.84-2.66-907.68C581.54-17,527.42-71,461.46-70.78Z"/><path class="cls-63" d="M461.92-70.68l-339.61,1A117,117,0,0,0,41-37.11L-83.53,83.5a120.14,120.14,0,0,0-32.65,82.7q1.33,453.27,2.65,906.55c.19,66.13,54.17,120.07,119.94,119.88l339.61-1a118.43,118.43,0,0,0,82.19-33.45l122.62-118.64c20.38-19.72,33.76-53.28,33.68-83.79q-1.33-453.27-2.65-906.55C581.66-16.93,527.69-70.88,461.92-70.68Z"/><path class="cls-64" d="M462.37-70.59l-338.67,1a116.53,116.53,0,0,0-81,32.53L-81.56,83.41A120.08,120.08,0,0,0-114.12,166q1.32,452.71,2.64,905.41c.19,66,54,119.92,119.6,119.73l338.67-1a118,118,0,0,0,82-33.41L551,1038.24c20.32-19.7,33.67-53.22,33.58-83.68Q583.3,501.85,582,49.14C581.78-16.9,528-70.78,462.37-70.59Z"/><path class="cls-65" d="M462.83-70.49l-337.73,1A116.11,116.11,0,0,0,44.29-37L-79.6,83.31a120,120,0,0,0-32.47,82.49q1.32,452.14,2.64,904.28c.19,66,53.86,119.77,119.27,119.58l337.73-1a117.59,117.59,0,0,0,81.73-33.37l121.94-118.34c20.27-19.67,33.58-53.15,33.49-83.58q-1.32-452.14-2.64-904.28C581.9-16.87,528.23-70.68,462.83-70.49Z"/><path class="cls-66" d="M463.28-70.39l-336.79,1A115.7,115.7,0,0,0,45.91-36.95L-77.63,83.22A120,120,0,0,0-110,165.6q1.32,451.57,2.63,903.14c.19,65.88,53.71,119.62,118.94,119.43l336.79-1a117.16,117.16,0,0,0,81.51-33.32l121.6-118.2c20.21-19.65,33.49-53.08,33.4-83.47Q583.54,500.61,582.22,49C582-16.84,528.51-70.59,463.28-70.39Z"/><path class="cls-67" d="M463.74-70.29l-335.85,1a115.29,115.29,0,0,0-80.36,32.4l-123.19,120A119.93,119.93,0,0,0-108,165.41q1.31,451,2.62,902c.19,65.8,53.57,119.47,118.61,119.28l335.84-1a116.75,116.75,0,0,0,81.28-33.28l121.26-118c20.16-19.62,33.39-53,33.3-83.37q-1.31-451-2.62-902C582.15-16.81,528.78-70.49,463.74-70.29Z"/><path class="cls-68" d="M464.19-70.19l-334.91,1A114.86,114.86,0,0,0,49.15-36.83L-73.7,83a119.87,119.87,0,0,0-32.2,82.18q1.31,450.44,2.62,900.87c.19,65.71,53.42,119.32,118.27,119.13l334.91-1A116.32,116.32,0,0,0,431,1151l120.92-117.9c20.1-19.6,33.3-52.95,33.21-83.26q-1.31-450.44-2.62-900.87C582.28-16.78,529.05-70.39,464.19-70.19Z"/><path class="cls-69" d="M464.65-70.1l-334,1A114.45,114.45,0,0,0,50.77-36.78L-71.74,82.93A119.83,119.83,0,0,0-103.84,165q1.31,449.87,2.61,899.74c.19,65.63,53.27,119.17,117.94,119l334-1a115.93,115.93,0,0,0,80.82-33.2l120.58-117.75c20-19.57,33.21-52.88,33.12-83.16q-1.3-449.87-2.61-899.74C582.4-16.75,529.33-70.29,464.65-70.1Z"/><path class="cls-70" d="M465.1-70l-333,1A114,114,0,0,0,52.39-36.72L-69.77,82.84a119.78,119.78,0,0,0-32,82q1.3,449.3,2.6,898.6c.19,65.55,53.11,119,117.61,118.83l333-1a115.51,115.51,0,0,0,80.6-33.16l120.24-117.6c20-19.55,33.11-52.82,33-83.05q-1.3-449.3-2.6-898.6C582.52-16.72,529.6-70.19,465.1-70Z"/><path class="cls-71" d="M465.56-69.9l-332.09,1A113.63,113.63,0,0,0,54-36.67L-67.81,82.74a119.72,119.72,0,0,0-31.93,81.87q1.3,448.73,2.59,897.47c.19,65.47,53,118.87,117.28,118.68l332.09-1a115.09,115.09,0,0,0,80.37-33.11l119.9-117.45c19.93-19.52,33-52.75,32.93-82.95q-1.3-448.73-2.6-897.47C582.65-16.69,529.87-70.09,465.56-69.9Z"/><path class="cls-72" d="M466-69.8l-331.15,1a113.21,113.21,0,0,0-79.24,32.2L-65.84,82.65a119.68,119.68,0,0,0-31.84,81.77q1.29,448.17,2.59,896.33c.19,65.38,52.81,118.72,116.95,118.53l331.15-1a114.65,114.65,0,0,0,80.14-33.07l119.56-117.3c19.87-19.5,32.93-52.68,32.84-82.84Q584.25,496.89,583,48.73C582.77-16.66,530.15-70,466-69.8Z"/><path class="cls-73" d="M466.47-69.71l-330.21,1a112.8,112.8,0,0,0-79,32.16L-63.88,82.55a119.63,119.63,0,0,0-31.74,81.66q1.29,447.6,2.58,895.2c.19,65.3,52.66,118.57,116.61,118.38l330.21-1a114.24,114.24,0,0,0,79.91-33l119.22-117.16c19.82-19.47,32.83-52.61,32.75-82.74q-1.29-447.6-2.58-895.2C582.89-16.63,530.42-69.9,466.47-69.71Z"/><path class="cls-74" d="M466.92-69.61l-329.27,1A112.4,112.4,0,0,0,58.87-36.5l-120.78,119A119.58,119.58,0,0,0-93.57,164q1.28,447,2.57,894.06c.19,65.22,52.52,118.42,116.28,118.23l329.27-1a113.83,113.83,0,0,0,79.69-33l118.88-117c19.76-19.45,32.74-52.55,32.65-82.63q-1.29-447-2.57-894.06C583-16.6,530.69-69.8,466.92-69.61Z"/><path class="cls-75" d="M467.38-69.51,139-68.52A112,112,0,0,0,60.49-36.44L-59.95,82.36a119.52,119.52,0,0,0-31.56,81.46q1.28,446.46,2.57,892.92c.19,65.13,52.36,118.27,116,118.08l328.33-1a113.42,113.42,0,0,0,79.46-32.95L553.33,1024c19.7-19.43,32.64-52.48,32.56-82.53Q584.61,495,583.33,48.57C583.14-16.57,531-69.7,467.38-69.51Z"/><path class="cls-76" d="M467.83-69.41l-327.39,1a111.56,111.56,0,0,0-78.34,32L-58,82.26a119.49,119.49,0,0,0-31.47,81.35q1.28,445.9,2.56,891.79c.18,65.05,52.21,118.12,115.62,117.93l327.39-1a113,113,0,0,0,79.23-32.91l118.21-116.71c19.65-19.4,32.55-52.41,32.47-82.42q-1.28-445.9-2.56-891.79C583.26-16.54,531.24-69.61,467.83-69.41Z"/><path class="cls-77" d="M468.29-69.31l-326.45,1a111.15,111.15,0,0,0-78.11,32L-56,82.17A119.44,119.44,0,0,0-87.4,163.42q1.27,445.33,2.55,890.65c.19,65,52.07,118,115.29,117.78l326.45-1a112.59,112.59,0,0,0,79-32.86l117.87-116.56c19.59-19.37,32.46-52.35,32.37-82.32q-1.28-445.33-2.55-890.66C583.39-16.51,531.51-69.51,468.29-69.31Z"/><path class="cls-78" d="M468.74-69.22l-325.51,1a110.74,110.74,0,0,0-77.89,32L-54.06,82.07a119.39,119.39,0,0,0-31.29,81.14q1.27,444.76,2.54,889.52c.18,64.89,51.92,117.82,115,117.63l325.51-1a112.16,112.16,0,0,0,78.78-32.82L554,1020.14c19.54-19.35,32.37-52.28,32.28-82.21Q585,493.17,583.7,48.41C583.51-16.48,531.78-69.41,468.74-69.22Z"/><path class="cls-79" d="M469.2-69.12l-324.57,1A110.32,110.32,0,0,0,67-36.22L-52.09,82a119.35,119.35,0,0,0-31.2,81Q-82,607.21-80.76,1051.4c.18,64.8,51.77,117.67,114.62,117.48l324.57-1A111.74,111.74,0,0,0,437,1135.12l117.19-116.26c19.48-19.33,32.27-52.22,32.19-82.11q-1.27-444.19-2.54-888.38C583.63-16.45,532.06-69.31,469.2-69.12Z"/><path class="cls-80" d="M469.65-69,146-68A109.92,109.92,0,0,0,68.58-36.16l-118.71,118a119.31,119.31,0,0,0-31.11,80.94q1.26,443.63,2.53,887.25c.18,64.72,51.62,117.52,114.29,117.33l323.63-1a111.35,111.35,0,0,0,78.32-32.74l116.85-116.12c19.42-19.3,32.18-52.15,32.09-82q-1.26-443.62-2.53-887.25C583.76-16.42,532.33-69.21,469.65-69Z"/><path class="cls-81" d="M470.11-68.92l-322.69,1A109.51,109.51,0,0,0,70.2-36.11L-48.16,81.79a119.26,119.26,0,0,0-31,80.84l2.52,886.11c.18,64.64,51.47,117.37,114,117.18l322.69-1a110.92,110.92,0,0,0,78.09-32.69l116.51-116c19.37-19.28,32.08-52.08,32-81.9q-1.26-443.06-2.52-886.11C583.88-16.39,532.6-69.11,470.11-68.92Z"/><path class="cls-82" d="M470.56-68.83l-321.75,1a109.1,109.1,0,0,0-77,31.79L-46.2,81.69a119.23,119.23,0,0,0-30.93,80.73q1.26,442.49,2.52,885c.18,64.55,51.31,117.22,113.63,117l321.75-1a110.51,110.51,0,0,0,77.87-32.65L554.79,1015c19.31-19.25,32-52,31.91-81.79q-1.26-442.49-2.51-885C584-16.35,532.87-69,470.56-68.83Z"/><path class="cls-83" d="M471-68.73l-320.81,1A108.68,108.68,0,0,0,73.44-36L-44.23,81.6a119.18,119.18,0,0,0-30.84,80.63q1.25,441.92,2.51,883.84c.18,64.47,51.17,117.07,113.3,116.88l320.81-1a110.09,110.09,0,0,0,77.64-32.61L555,1013.68c19.25-19.23,31.9-51.95,31.81-81.69q-1.25-441.92-2.51-883.84C584.13-16.32,533.15-68.92,471-68.73Z"/><path class="cls-84" d="M471.47-68.63l-319.87,1A108.27,108.27,0,0,0,75.06-35.94L-42.27,81.5A119.13,119.13,0,0,0-73,162q1.25,441.35,2.5,882.71c.18,64.39,51,116.92,113,116.73l319.87-1a109.7,109.7,0,0,0,77.41-32.57l115.49-115.52c19.2-19.2,31.8-51.88,31.72-81.58q-1.25-441.36-2.5-882.71C584.25-16.29,533.42-68.82,471.47-68.63Z"/><path class="cls-85" d="M471.93-68.53,153-67.56A107.87,107.87,0,0,0,76.68-35.88L-40.3,81.41A119.09,119.09,0,0,0-71,161.83q1.24,440.78,2.49,881.57c.18,64.31,50.87,116.76,112.63,116.58l318.93-1a109.28,109.28,0,0,0,77.18-32.53L555.42,1011.1c19.14-19.18,31.71-51.81,31.63-81.48Q585.8,488.83,584.56,48C584.37-16.26,533.69-68.72,471.93-68.53Z"/><path class="cls-86" d="M472.38-68.43l-318,1A107.46,107.46,0,0,0,78.3-35.83L-38.34,81.31a119.06,119.06,0,0,0-30.57,80.32q1.24,440.22,2.48,880.44c.18,64.22,50.72,116.61,112.3,116.43l318-1a108.86,108.86,0,0,0,77-32.49L555.63,1009.8c19.08-19.15,31.62-51.75,31.53-81.37Q585.92,488.21,584.68,48C584.5-16.23,534-68.62,472.38-68.43Z"/><path class="cls-87" d="M472.84-68.34l-317,1A107,107,0,0,0,79.92-35.77l-116.3,117a119,119,0,0,0-30.48,80.21q1.24,439.65,2.48,879.3c.18,64.14,50.57,116.47,112,116.28l317-1a108.46,108.46,0,0,0,76.73-32.44l114.47-115.08c19-19.13,31.52-51.68,31.44-81.27Q586,487.59,584.8,47.94C584.62-16.2,534.24-68.53,472.84-68.34Z"/><path class="cls-88" d="M473.29-68.24l-316.11,1A106.66,106.66,0,0,0,81.54-35.72l-116,116.84A119,119,0,0,0-64.8,161.23q1.24,439.08,2.47,878.17c.18,64.06,50.42,116.31,111.64,116.13l316.11-1c29.61-.09,56.62-12.38,76.5-32.4L556,1007.22c19-19.1,31.43-51.62,31.35-81.17Q586.16,487,584.93,47.89C584.75-16.17,534.51-68.43,473.29-68.24Z"/><path class="cls-89" d="M473.75-68.14l-315.17,1A106.24,106.24,0,0,0,83.16-35.66L-32.45,81a118.93,118.93,0,0,0-30.3,80q1.23,438.51,2.46,877C-60.1,1102-10,1154.22,51,1154l315.17-1c29.52-.09,56.45-12.37,76.27-32.36l113.79-114.78c18.92-19.08,31.34-51.55,31.25-81.06q-1.23-438.52-2.46-877C584.87-16.14,534.78-68.33,473.75-68.14Z"/><path class="cls-90" d="M474.2-68,160-67.07A105.84,105.84,0,0,0,84.78-35.61L-30.48,80.93a118.9,118.9,0,0,0-30.21,79.9q1.23,437.94,2.45,875.89c.18,63.89,50.12,116,111,115.83l314.23-1c29.43-.09,56.28-12.35,76-32.32l113.45-114.63c18.86-19.05,31.24-51.48,31.16-81q-1.23-437.95-2.45-875.9C585-16.11,535.06-68.23,474.2-68Z"/><path class="cls-91" d="M474.65-67.95,161.37-67a105.44,105.44,0,0,0-75,31.43L-28.51,80.83a118.85,118.85,0,0,0-30.12,79.8q1.22,437.38,2.45,874.76c.18,63.81,50,115.86,110.64,115.68l313.29-1c29.34-.09,56.11-12.33,75.82-32.28l113.11-114.48c18.8-19,31.15-51.41,31.07-80.85q-1.22-437.38-2.45-874.76C585.12-16.08,535.33-68.13,474.65-67.95Z"/><path class="cls-92" d="M475.11-67.85l-312.35,1A105,105,0,0,0,88-35.5L-26.55,80.74a118.81,118.81,0,0,0-30,79.7q1.22,436.81,2.44,873.62c.18,63.73,49.82,115.71,110.31,115.53l312.35-1c29.26-.09,55.95-12.32,75.59-32.23L556.88,1002c18.75-19,31.06-51.35,31-80.74q-1.22-436.81-2.44-873.63C585.24-16,535.6-68,475.11-67.85Z"/><path class="cls-93" d="M475.56-67.75l-311.41,1A104.63,104.63,0,0,0,89.64-35.44L-24.59,80.64a118.77,118.77,0,0,0-29.94,79.59q1.22,436.24,2.43,872.49c.18,63.65,49.67,115.56,110,115.38l311.41-1c29.17-.09,55.78-12.3,75.36-32.19l112.43-114.18c18.69-19,31-51.28,30.88-80.64q-1.22-436.25-2.43-872.49C585.36-16,535.87-67.94,475.56-67.75Z"/><path class="cls-94" d="M476-67.65l-310.47,1a104.21,104.21,0,0,0-74.29,31.3L-22.62,80.55A118.74,118.74,0,0,0-52.47,160q1.21,435.68,2.43,871.35C-49.87,1095-.53,1146.8,59.6,1146.61l310.47-1c29.08-.09,55.61-12.28,75.14-32.15l112.1-114c18.63-19,30.87-51.21,30.79-80.53q-1.21-435.67-2.43-871.35C585.49-16,536.15-67.84,476-67.65Z"/><path class="cls-95" d="M476.47-67.55l-309.53,1A103.82,103.82,0,0,0,92.88-35.33L-20.66,80.45a118.69,118.69,0,0,0-29.76,79.38Q-49.2,594.95-48,1030.05c.18,63.48,49.37,115.26,109.31,115.07l309.53-1c29-.09,55.44-12.27,74.91-32.11L557.51,998.17c18.58-18.93,30.77-51.15,30.69-80.43Q587,482.63,585.79,47.52C585.61-16,536.42-67.74,476.47-67.55Z"/><path class="cls-96" d="M476.93-67.46l-308.59,1A103.42,103.42,0,0,0,94.5-35.27L-18.69,80.36a118.65,118.65,0,0,0-29.67,79.28q1.2,434.54,2.41,869.08c.18,63.4,49.22,115.11,109,114.92l308.59-1c28.9-.09,55.27-12.25,74.68-32.07L557.72,996.88c18.52-18.91,30.68-51.08,30.6-80.32Q587.11,482,585.91,47.47C585.73-15.93,536.69-67.64,476.93-67.46Z"/><path class="cls-97" d="M477.38-67.36l-307.64,1A103,103,0,0,0,96.12-35.22L-16.73,80.26A118.64,118.64,0,0,0-46.3,159.44q1.2,434,2.4,867.95c.18,63.31,49.06,115,108.65,114.77l307.65-1c28.81-.09,55.1-12.24,74.45-32L557.93,995.58c18.46-18.88,30.59-51,30.51-80.22q-1.2-434-2.4-867.95C585.86-15.9,537-67.54,477.38-67.36Z"/><path class="cls-98" d="M477.84-67.26l-306.71,1A102.61,102.61,0,0,0,97.74-35.16L-14.76,80.17a118.6,118.6,0,0,0-29.49,79.07q1.2,433.41,2.4,866.81c.17,63.23,48.92,114.81,108.32,114.62l306.71-1c28.72-.09,54.93-12.22,74.23-32L558.13,994.29c18.41-18.85,30.5-50.95,30.42-80.11q-1.2-433.41-2.4-866.81C586-15.87,537.24-67.45,477.84-67.26Z"/><path class="cls-99" d="M478.29-67.16l-305.77,1A102.2,102.2,0,0,0,99.36-35.1L-12.8,80.07a118.55,118.55,0,0,0-29.39,79Q-41,591.88-39.8,1024.72c.17,63.15,48.77,114.66,108,114.47l305.77-1c28.64-.09,54.77-12.21,74-31.94L558.34,993c18.35-18.83,30.4-50.88,30.32-80q-1.19-432.84-2.39-865.68C586.1-15.84,537.51-67.35,478.29-67.16Z"/><path class="cls-100" d="M478.75-67.07l-304.83,1A101.82,101.82,0,0,0,101-35L-10.83,80a118.52,118.52,0,0,0-29.3,78.87q1.19,432.27,2.38,864.54c.17,63.06,48.62,114.51,107.65,114.33l304.83-1c28.55-.09,54.6-12.19,73.77-31.9L558.55,991.71c18.29-18.81,30.31-50.81,30.23-79.9q-1.19-432.27-2.38-864.54C586.23-15.8,537.78-67.25,478.75-67.07Z"/><path class="cls-101" d="M479.2-67,175.32-66A101.41,101.41,0,0,0,102.6-35L-8.87,79.88a118.49,118.49,0,0,0-29.21,78.76q1.19,431.7,2.37,863.41c.17,63,48.47,114.36,107.32,114.17l303.89-1c28.46-.09,54.43-12.17,73.54-31.86l109.72-113C577,971.63,589,939.67,588.9,910.62q-1.19-431.7-2.37-863.41C586.35-15.78,538.06-67.15,479.2-67Z"/><path class="cls-102" d="M479.66-66.87l-302.95,1a101,101,0,0,0-72.49,31L-6.9,79.78A118.46,118.46,0,0,0-36,158.45q1.18,431.13,2.37,862.27c.17,62.9,48.32,114.21,107,114l302.95-1c28.37-.09,54.26-12.16,73.32-31.81L559,989.12c18.18-18.76,30.12-50.68,30-79.69q-1.18-431.13-2.37-862.27C586.47-15.75,538.33-67.06,479.66-66.87Z"/><path class="cls-103" d="M480.11-66.77l-302,1a100.6,100.6,0,0,0-72.27,30.94L-4.94,79.69a118.42,118.42,0,0,0-29,78.56q1.18,430.57,2.36,861.13c.17,62.82,48.17,114.06,106.66,113.87l302-1c28.28-.09,54.09-12.14,73.09-31.77l109-112.7c18.13-18.73,30-50.61,29.95-79.59q-1.18-430.57-2.36-861.14C586.59-15.71,538.6-67,480.11-66.77Z"/><path class="cls-104" d="M480.57-66.67l-301.07,1a100.21,100.21,0,0,0-72,30.9L-3,79.6A118.39,118.39,0,0,0-31.92,158q1.17,430,2.35,860c.17,62.73,48,113.91,106.32,113.72l301.07-1c28.2-.09,53.93-12.12,72.86-31.73l108.7-112.55c18.07-18.71,29.93-50.55,29.86-79.48q-1.18-430-2.35-860C586.72-15.68,538.88-66.86,480.57-66.67Z"/><path class="cls-105" d="M481-66.58l-300.13,1a99.79,99.79,0,0,0-71.82,30.85L-1,79.5a118.36,118.36,0,0,0-28.85,78.35l2.34,858.86c.17,62.65,47.87,113.76,106,113.58l300.13-1c28.11-.09,53.76-12.11,72.63-31.69L559.6,985.24c18-18.68,29.84-50.48,29.76-79.38L587,47C586.84-15.65,539.15-66.76,481-66.58Z"/></g><path class="cls-106" d="M463.8-102,97.11-100.95c-71,.21-128.95,58.48-128.74,129.5l2.86,973.54c.21,71,58.48,128.95,129.5,128.74l366.69-1.08c71-.21,128.95-58.48,128.74-129.5L593.3,26.72C593.09-44.3,534.81-102.23,463.8-102Z"/><g class="cls-107"><image width="509" height="339" transform="matrix(0, -2.05, -2.4, 0, 459.22, 1005.98)" xlink:href="../../../../Downloads/NEN MO.jpg"/></g></svg>